<svg width="18.449mm" height="12.329mm" version="1.1" viewBox="0 0 18.449 12.329" xmlns="http://www.w3.org/2000/svg">
 <g transform="translate(-101.13 -78.782)">
  <rect x="101.13" y="78.782" width="3.0949" height="12.293" ry=".61463" style="stroke-width:.26458"/>
  <path d="m110.91 81.99h1.9542c0.25122 0 0.45346 0.20224 0.45346 0.45346v8.1622c0 0.25122-0.20224 0.45346-0.45346 0.45346h-1.9542c-0.25121 0-0.45345-0.20224-0.45345-0.45346v-8.1622c0-0.10138 0.0329-0.16818 0.0887-0.24357 0.0187-0.02533 0.0401-0.04861 0.0636-0.06947 0.034-0.03014 0.0725-0.08185 0.11445-0.10073 0.0569-0.02559 0.12005-0.03969 0.18667-0.03969z" style="stroke-width:.22291"/>
  <path d="m117.08 78.818s1.7683 0.0046 1.7871 0.0042l0.38224-6e-3 0.33622 0.0051-0.93569 1.4914-4.2756 6.1437c-0.14148 0.20317-0.45192 0.31444-0.68796 0.23689l-1.7679-0.58076c-0.23597-0.07755-0.3149-0.29049-0.17175-0.49256l4.6455-6.565c0.14278-0.20205 0.43942-0.23742 0.68794-0.23689z" style="stroke-width:.21371"/>
  <path d="m111.85 85.779 1.5842-1.6584c0.13852-0.145 0.29379 1.0503 0.4334 1.1943 0 0 3.6534 3.7846 4.5394 4.7432 0.88611 0.95864 1.08 1.0478 0.81192 1.0357-0.779-0.01139-1.5605 0.0026-2.3396-0.0049-0.29387-0.0028-0.35587 0.03703-0.49525-0.10705l-4.5323-4.681c-0.13951-0.14408-0.14031-0.3768-2e-3 -0.5218z" style="color-rendering:auto;color:#000000;dominant-baseline:auto;font-feature-settings:normal;font-variant-alternates:normal;font-variant-caps:normal;font-variant-east-asian:normal;font-variant-ligatures:normal;font-variant-numeric:normal;font-variant-position:normal;font-variation-settings:normal;image-rendering:auto;inline-size:0;isolation:auto;mix-blend-mode:normal;shape-margin:0;shape-padding:0;shape-rendering:auto;solid-color:#000000;stop-color:#000000;text-decoration-color:#000000;text-decoration-line:none;text-decoration-style:solid;text-indent:0;text-orientation:mixed;text-transform:none;white-space:normal"/>
  <circle cx="111.95" cy="80.116" r="1.3229" style="stroke-width:.665"/>
  <path d="m102.22 79.379 1.3298-0.39465c0.24022-0.07129 0.48521-0.06902 0.62804 0.13608l4.4289 6.3595c0.14289 0.20518 0.0758 0.48616-0.13611 0.62029l-1.3295 0.84238c-0.21164 0.13413-0.49187 0.07346-0.62833-0.13608l-4.4289-6.8073c-0.13636-0.20951-0.0758-0.48616 0.1361-0.6203z" style="color-rendering:auto;color:#000000;dominant-baseline:auto;font-feature-settings:normal;font-variant-alternates:normal;font-variant-caps:normal;font-variant-east-asian:normal;font-variant-ligatures:normal;font-variant-numeric:normal;font-variant-position:normal;font-variation-settings:normal;image-rendering:auto;inline-size:0;isolation:auto;mix-blend-mode:normal;shape-margin:0;shape-padding:0;shape-rendering:auto;solid-color:#000000;stop-color:#000000;text-decoration-color:#000000;text-decoration-line:none;text-decoration-style:solid;text-indent:0;text-orientation:mixed;text-transform:none;white-space:normal"/>
  <path d="m110.96 82.182 0.55228 1.1803c0.0745 0.15902 0.027 0.3797-0.0929 0.50904l-3.8631 4.1908c-0.0603 0.06469-0.19509 0.0987-0.24722 0.02787l-1.0475-1.6767c-0.0515-0.07082 0.12217-0.17762 0.2482-0.30061l4.0885-3.9958c0.12563-0.12299 0.28694-0.09395 0.36148 0.06507z" style="stroke-width:.21371"/>
 </g>
</svg>
