<?xml version="1.0" encoding="UTF-8" standalone="no"?>
<svg
   xmlns:dc="http://purl.org/dc/elements/1.1/"
   xmlns:cc="http://creativecommons.org/ns#"
   xmlns:rdf="http://www.w3.org/1999/02/22-rdf-syntax-ns#"
   xmlns:svg="http://www.w3.org/2000/svg"
   xmlns="http://www.w3.org/2000/svg"
   xmlns:sodipodi="http://sodipodi.sourceforge.net/DTD/sodipodi-0.dtd"
   xmlns:inkscape="http://www.inkscape.org/namespaces/inkscape"
   width="110.66391mm"
   height="90.145828mm"
   viewBox="0 0 110.66391 90.145828"
   version="1.1"
   id="svg8"
   sodipodi:docname="mik_logo-4.svg"
   inkscape:version="1.0.2-2 (e86c870879, 2021-01-15)">
  <defs
     id="defs2" />
  <sodipodi:namedview
     id="base"
     pagecolor="#ffffff"
     bordercolor="#666666"
     borderopacity="1.0"
     inkscape:pageopacity="0.0"
     inkscape:pageshadow="2"
     inkscape:zoom="0.49497475"
     inkscape:cx="-433.06155"
     inkscape:cy="-74.58466"
     inkscape:document-units="mm"
     inkscape:current-layer="layer1"
     inkscape:document-rotation="0"
     showgrid="false"
     inkscape:window-width="1920"
     inkscape:window-height="1034"
     inkscape:window-x="-4"
     inkscape:window-y="-4"
     inkscape:window-maximized="1">
    <inkscape:grid
       type="xygrid"
       id="grid12"
       originx="-121.70833"
       originy="-259.10417" />
  </sodipodi:namedview>
  <metadata
     id="metadata5">
    <rdf:RDF>
      <cc:Work
         rdf:about="">
        <dc:format>image/svg+xml</dc:format>
        <dc:type
           rdf:resource="http://purl.org/dc/dcmitype/StillImage" />
        <dc:title></dc:title>
      </cc:Work>
    </rdf:RDF>
  </metadata>
  <g
     inkscape:label="Слой 1"
     inkscape:groupmode="layer"
     id="layer1"
     transform="translate(-42.333333,-68.604171)">
    <path
       style="stroke-width:2.51338"
       d=""
       id="path102"
       transform="scale(0.26458333)" />
    <path
       id="path1161"
       style="fill:#000000;fill-opacity:1;stroke:none;stroke-width:2.26772;stroke-linecap:butt;stroke-miterlimit:4;stroke-dasharray:none;stroke-opacity:1"
       d="M 209.96289,260 A 49.999997,170 0 0 0 160,430 49.999997,170 0 0 0 210,600 49.999997,170 0 0 0 259.93359,438.82422 L 326.20312,566.74219 330,575 l 2.9043,-6.31641 C 347.78809,542.00535 415,412.55538 415,410 H 259.65234 A 49.999997,170 0 0 0 210,260 a 49.999997,170 0 0 0 -0.0371,0 z"
       transform="scale(0.26458333)" />
    <ellipse
       style="fill:#000000;fill-opacity:1;stroke:none;stroke-width:0.600001;stroke-linecap:butt;stroke-miterlimit:4;stroke-dasharray:none;stroke-opacity:1"
       id="path1161-6"
       cx="116.0198"
       cy="121.80281"
       rx="10.186459"
       ry="36.758167" />
    <path
       id="path1161-6-0"
       style="fill:#000000;fill-opacity:1;stroke:none;stroke-width:2.26772;stroke-linecap:butt;stroke-miterlimit:4;stroke-dasharray:none;stroke-opacity:1"
       d="m 557.42773,317.88867 a 28.486915,82.196023 38.851607 0 0 -63.6875,46.15625 28.486915,82.196023 38.851607 0 0 -34.36328,60.79688 110.89792,32.831534 50.921346 0 0 -27.99609,0.35937 110.89792,32.831534 50.921346 0 0 55.57422,113.875 110.89792,32.831534 50.921346 0 0 89.35937,52.07031 110.89792,32.831534 50.921346 0 0 -55.57422,-113.875 110.89792,32.831534 50.921346 0 0 -32.30859,-32.25586 28.486915,82.196023 38.851607 0 0 45.70703,-40.36718 28.486915,82.196023 38.851607 0 0 32.17188,-83.58399 28.486915,82.196023 38.851607 0 0 -8.88282,-3.17578 z"
       transform="scale(0.26458333)" />
    <rect
       style="fill:#000000;fill-opacity:1;stroke:#000000;stroke-width:2.80002;stroke-linecap:butt;stroke-linejoin:round;stroke-miterlimit:4;stroke-dasharray:none;stroke-opacity:1;paint-order:fill markers stroke"
       id="rect1262"
       width="6.7249799"
       height="10.13811"
       x="112.44792"
       y="70.004181"
       rx="0.72853917"
       ry="2.8966019" />
  </g>
</svg>
