<?xml version="1.0" encoding="UTF-8" standalone="no"?>
<svg
   xmlns:dc="http://purl.org/dc/elements/1.1/"
   xmlns:cc="http://creativecommons.org/ns#"
   xmlns:rdf="http://www.w3.org/1999/02/22-rdf-syntax-ns#"
   xmlns:svg="http://www.w3.org/2000/svg"
   xmlns="http://www.w3.org/2000/svg"
   xmlns:sodipodi="http://sodipodi.sourceforge.net/DTD/sodipodi-0.dtd"
   xmlns:inkscape="http://www.inkscape.org/namespaces/inkscape"
   width="52.765434mm"
   height="41.023857mm"
   viewBox="0 0 52.765434 41.023857"
   version="1.1"
   id="svg1220"
   inkscape:version="1.0.2-2 (e86c870879, 2021-01-15)"
   sodipodi:docname="mik_logo-2.svg">
  <defs
     id="defs1214" />
  <sodipodi:namedview
     id="base"
     pagecolor="#ffffff"
     bordercolor="#666666"
     borderopacity="1.0"
     inkscape:pageopacity="0.0"
     inkscape:pageshadow="2"
     inkscape:zoom="1.4"
     inkscape:cx="123.78281"
     inkscape:cy="34.278476"
     inkscape:document-units="mm"
     inkscape:current-layer="layer1"
     inkscape:document-rotation="0"
     showgrid="false"
     units="mm"
     fit-margin-top="0"
     fit-margin-left="0"
     fit-margin-right="0"
     fit-margin-bottom="0"
     inkscape:window-width="1920"
     inkscape:window-height="1034"
     inkscape:window-x="-4"
     inkscape:window-y="-4"
     inkscape:window-maximized="1"
     inkscape:snap-bbox="true"
     inkscape:lockguides="false">
    <inkscape:grid
       type="xygrid"
       id="grid1249"
       originx="-0.70843654"
       originy="29.104167" />
  </sodipodi:namedview>
  <metadata
     id="metadata1217">
    <rdf:RDF>
      <cc:Work
         rdf:about="">
        <dc:format>image/svg+xml</dc:format>
        <dc:type
           rdf:resource="http://purl.org/dc/dcmitype/StillImage" />
        <dc:title></dc:title>
      </cc:Work>
    </rdf:RDF>
  </metadata>
  <g
     inkscape:label="Слой 1"
     inkscape:groupmode="layer"
     id="layer1"
     transform="translate(-101.84281,-49.678197)">
    <path
       style="color:#000000;font-style:normal;font-variant:normal;font-weight:normal;font-stretch:normal;font-size:medium;line-height:normal;font-family:sans-serif;font-variant-ligatures:normal;font-variant-position:normal;font-variant-caps:normal;font-variant-numeric:normal;font-variant-alternates:normal;font-variant-east-asian:normal;font-feature-settings:normal;font-variation-settings:normal;text-indent:0;text-align:start;text-decoration:none;text-decoration-line:none;text-decoration-style:solid;text-decoration-color:#000000;letter-spacing:normal;word-spacing:normal;text-transform:none;writing-mode:lr-tb;direction:ltr;text-orientation:mixed;dominant-baseline:auto;baseline-shift:baseline;text-anchor:start;white-space:normal;shape-padding:0;shape-margin:0;inline-size:0;clip-rule:nonzero;display:inline;overflow:visible;visibility:visible;isolation:auto;mix-blend-mode:normal;color-interpolation:sRGB;color-interpolation-filters:linearRGB;solid-color:#000000;solid-opacity:1;vector-effect:none;fill:#000000;fill-opacity:1;fill-rule:nonzero;stroke:none;stroke-width:0.264581;stroke-linecap:butt;stroke-linejoin:miter;stroke-miterlimit:4;stroke-dasharray:none;stroke-dashoffset:0;stroke-opacity:1;color-rendering:auto;image-rendering:auto;shape-rendering:auto;text-rendering:auto;enable-background:accumulate;stop-color:#000000"
       d="m 130.56459,57.20302 h 4.93355 c 0.90045,0 1.62529,0.995901 1.62533,2.232963 l 8.7e-4,28.93197 c 2e-5,1.237065 -0.7249,2.23297 -1.62531,2.23297 h -4.93384 c -0.9005,0 -1.62503,-0.995905 -1.6251,-2.23297 l -9e-4,-28.93197 c -8e-5,-1.237062 0.72505,-2.232963 1.6255,-2.232963 z"
       id="rect871-6"
       sodipodi:nodetypes="sssssssss" />
    <g
       id="g188">
      <path
         id="rect871"
         style="color:#000000;font-style:normal;font-variant:normal;font-weight:normal;font-stretch:normal;font-size:medium;line-height:normal;font-family:sans-serif;font-variant-ligatures:normal;font-variant-position:normal;font-variant-caps:normal;font-variant-numeric:normal;font-variant-alternates:normal;font-variant-east-asian:normal;font-feature-settings:normal;font-variation-settings:normal;text-indent:0;text-align:start;text-decoration:none;text-decoration-line:none;text-decoration-style:solid;text-decoration-color:#000000;letter-spacing:normal;word-spacing:normal;text-transform:none;writing-mode:lr-tb;direction:ltr;text-orientation:mixed;dominant-baseline:auto;baseline-shift:baseline;text-anchor:start;white-space:normal;shape-padding:0;shape-margin:0;inline-size:0;clip-rule:nonzero;display:inline;overflow:visible;visibility:visible;opacity:1;isolation:auto;mix-blend-mode:normal;color-interpolation:sRGB;color-interpolation-filters:linearRGB;solid-color:#000000;solid-opacity:1;vector-effect:none;fill:#000000;fill-opacity:1;fill-rule:nonzero;stroke:none;stroke-width:0.999991;stroke-linecap:butt;stroke-linejoin:miter;stroke-miterlimit:4;stroke-dasharray:none;stroke-dashoffset:0;stroke-opacity:1;color-rendering:auto;image-rendering:auto;shape-rendering:auto;text-rendering:auto;enable-background:accumulate;stop-color:#000000;stop-opacity:1"
         d="M 7.0761719 28.439453 C 3.1558947 28.439453 -0.00026456693 32.203393 0 36.878906 L 0.00390625 146.22852 C 0.0041708169 150.90404 3.1596876 154.66797 7.0800781 154.66797 L 28.558594 154.66797 C 32.478833 154.66797 35.634879 150.90404 35.634766 146.22852 L 35.632812 71.867188 L 58.240234 106.5957 C 59.307596 108.23539 60.857393 109.26083 62.341797 109.47656 L 62.341797 109.5 L 62.914062 109.5 C 63.03543 109.50011 63.158211 109.51162 63.277344 109.5 L 67.703125 109.5 L 70.382812 109.5 L 74.771484 109.5 C 75.031967 109.52484 75.293796 109.52713 75.558594 109.5 L 75.742188 109.5 L 75.742188 109.4707 C 77.027818 109.28025 78.315885 108.4935 79.283203 107.02148 L 119.17578 46.3125 C 120.8842 43.712676 120.68483 40.568275 118.75391 39.277344 L 108.17773 32.203125 C 106.24757 30.912288 103.34382 31.983278 101.63086 34.580078 L 68.871094 84.242188 L 36.09375 33.890625 C 35.603391 33.137341 35.004467 32.53024 34.363281 32.054688 C 33.087008 29.868532 30.967183 28.439453 28.554688 28.439453 L 7.0761719 28.439453 z "
         transform="matrix(0.26458333,0,0,0.26458333,101.84281,49.678197)" />
    </g>
    <g
       id="g192">
      <path
         id="rect871-6-4"
         style="color:#000000;font-style:normal;font-variant:normal;font-weight:normal;font-stretch:normal;font-size:medium;line-height:normal;font-family:sans-serif;font-variant-ligatures:normal;font-variant-position:normal;font-variant-caps:normal;font-variant-numeric:normal;font-variant-alternates:normal;font-variant-east-asian:normal;font-feature-settings:normal;font-variation-settings:normal;text-indent:0;text-align:start;text-decoration:none;text-decoration-line:none;text-decoration-style:solid;text-decoration-color:#000000;letter-spacing:normal;word-spacing:normal;text-transform:none;writing-mode:lr-tb;direction:ltr;text-orientation:mixed;dominant-baseline:auto;baseline-shift:baseline;text-anchor:start;white-space:normal;shape-padding:0;shape-margin:0;inline-size:0;clip-rule:nonzero;display:inline;overflow:visible;visibility:visible;isolation:auto;mix-blend-mode:normal;color-interpolation:sRGB;color-interpolation-filters:linearRGB;solid-color:#000000;solid-opacity:1;vector-effect:none;fill:#000000;fill-opacity:1;fill-rule:nonzero;stroke:none;stroke-width:0.999991;stroke-linecap:butt;stroke-linejoin:miter;stroke-miterlimit:4;stroke-dasharray:none;stroke-dashoffset:0;stroke-opacity:1;color-rendering:auto;image-rendering:auto;shape-rendering:auto;text-rendering:auto;enable-background:accumulate;stop-color:#000000"
         inkscape:transform-center-x="2.887192"
         inkscape:transform-center-y="2.5945973"
         d="m 175.7168,28.792969 c -0.70913,0.0627 -1.532,0.323554 -2.67188,0.746093 l -41.48047,35.490235 c -1.61605,1.382672 -5.89385,2.260929 -5.55747,5.021484 l 0.625,5.126953 c -0.82819,0.120689 -1.66607,0.412075 -2.47071,0.953125 l -7.88979,10.878907 c 2.56993,1.823402 -3.93667,5.290883 -2.08398,7.197265 l 58.00195,59.681639 c 1.85269,1.90629 4.21565,0.90537 7.35157,0.85352 l 16.86328,-0.27539 c 3.13568,-0.0513 3.83795,-5.19744 2.08398,-7.19727 l -53.33984,-60.818358 4.24023,-3.736328 41.48047,-35.490235 c 1.61613,-1.382713 1.08808,-4.327532 -0.87305,-6.273437 L 179.25195,30.291016 c -1.48774,-1.156911 -2.35328,-1.602548 -3.53515,-1.498047 z"
         transform="matrix(0.26458333,0,0,0.26458333,101.84281,49.678197)"
         sodipodi:nodetypes="sccccccccccccccccs" />
    </g>
    <circle
       style="stroke-width:0.665001"
       id="path183"
       cx="133.01654"
       cy="52.985489"
       r="3.3072915" />
  </g>
</svg>
