<?xml version="1.0" encoding="UTF-8" standalone="no"?>
<svg
   xmlns:dc="http://purl.org/dc/elements/1.1/"
   xmlns:cc="http://creativecommons.org/ns#"
   xmlns:rdf="http://www.w3.org/1999/02/22-rdf-syntax-ns#"
   xmlns:svg="http://www.w3.org/2000/svg"
   xmlns="http://www.w3.org/2000/svg"
   xmlns:sodipodi="http://sodipodi.sourceforge.net/DTD/sodipodi-0.dtd"
   xmlns:inkscape="http://www.inkscape.org/namespaces/inkscape"
   width="73.140511mm"
   height="52.916664mm"
   viewBox="0 0 73.140511 52.916664"
   version="1.1"
   id="svg8"
   inkscape:version="1.0.2-2 (e86c870879, 2021-01-15)"
   sodipodi:docname="mik_logo-3.svg">
  <defs
     id="defs2" />
  <sodipodi:namedview
     id="base"
     pagecolor="#ffffff"
     bordercolor="#666666"
     borderopacity="1.0"
     inkscape:pageopacity="0.0"
     inkscape:pageshadow="2"
     inkscape:zoom="1.4"
     inkscape:cx="-2.9335818"
     inkscape:cy="45.24285"
     inkscape:document-units="mm"
     inkscape:current-layer="layer1"
     inkscape:document-rotation="0"
     showgrid="true"
     inkscape:window-width="1920"
     inkscape:window-height="1034"
     inkscape:window-x="-4"
     inkscape:window-y="-4"
     inkscape:window-maximized="1">
    <inkscape:grid
       type="xygrid"
       id="grid12"
       originx="-79.374995"
       originy="-190.5" />
  </sodipodi:namedview>
  <metadata
     id="metadata5">
    <rdf:RDF>
      <cc:Work
         rdf:about="">
        <dc:format>image/svg+xml</dc:format>
        <dc:type
           rdf:resource="http://purl.org/dc/dcmitype/StillImage" />
        <dc:title></dc:title>
      </cc:Work>
    </rdf:RDF>
  </metadata>
  <g
     inkscape:label="Слой 1"
     inkscape:groupmode="layer"
     id="layer1"
     transform="translate(-26.458333,-63.499999)">
    <path
       id="rect14"
       style="stroke-width:2.51339"
       d="m 110,240 c -5.54,0 -10,4.46 -10,10 v 180 c 0,5.53999 4.46,10 10,10 h 40 c 5.54,0 10,-4.46001 10,-10 V 320.54688 l 38.79688,59.99609 c 0.93677,1.44863 2.34736,2.8101 3.86523,3.75586 2.25628,1.63913 5.09233,1.95849 7.27344,0.5625 l 64.88281,-41.52735 c 2.99543,-1.91719 3.55472,-6.29115 1.31836,-9.84765 l -13.92969,-22.15235 c -2.23629,-3.55641 -6.39976,-4.67879 -9.49414,-2.92578 L 212.625,331.11914 159.68555,245.79297 c -0.56848,-0.91622 -1.41954,-1.8261 -2.39063,-2.63281 C 155.47291,241.21703 152.88624,240 150,240 Z"
       transform="scale(0.26458333)" />
    <rect
       style="stroke-width:0.665"
       id="rect14-9"
       width="12.03854"
       height="37.041668"
       x="66.091568"
       y="79.341591"
       rx="2.0064237"
       ry="2.6458333" />
    <path
       style="stroke-width:2.51338"
       d=""
       id="path102"
       transform="scale(0.26458333)" />
    <circle
       style="stroke-width:0.665"
       id="path110"
       cx="72.058334"
       cy="69.519272"
       r="6.0192709" />
    <path
       id="rect14-9-2"
       style="stroke-width:2.51339"
       d="m 346.49414,254.35156 c -2.69727,0.0896 -5.65716,1.58192 -7.87109,4.24414 l -76.72852,92.26563 c -3.54229,4.25955 -3.79461,9.85087 -0.56445,12.53711 l 3.1582,2.62695 c -2.04094,2.84246 -1.96569,6.67663 0.38086,9.18945 l 58.42774,64.45761 46.0293,-0.0378 c 3.07053,-2.86735 3.37122,-6.74611 0.67383,-9.63464 l -56.79103,-69.68556 60.39649,-72.625 c 3.54229,-4.25955 3.79461,-9.85282 0.56445,-12.53906 l -23.32226,-19.39453 c -1.21131,-1.00734 -2.73516,-1.45808 -4.35352,-1.4043 z"
       transform="scale(0.26458333)"
       sodipodi:nodetypes="sccccccccccccs" />
  </g>
</svg>
